<svg width="31" height="40" viewBox="0 0 31 40" fill="none" xmlns="http://www.w3.org/2000/svg">
<g id="shape">
<path id="Union" d="M18.7779 20.2632H24.3286C25.685 20.2632 26.3632 18.7253 25.5042 17.7303L22.3845 14.1571H23.0627C24.2382 14.1571 24.8712 12.8002 24.1026 11.8956L21.3898 8.72944H21.8419C22.8366 8.72944 23.334 7.68915 22.7462 7.01069L16.6425 0.407072C16.1451 -0.135691 15.3765 -0.135691 14.8792 0.407072L8.77544 7.01069C8.18767 7.68915 8.68502 8.72944 9.6797 8.72944H10.1318L7.41906 11.8956C6.69565 12.8002 7.28342 14.1571 8.45895 14.1571H9.13714L6.01746 17.7303C5.15842 18.7253 5.83661 20.3084 7.14778 20.3084H12.7326V29.4737H18.7779V20.2632Z" fill="#80D4CC"/>
<path id="Union_2" d="M18.7743 30.5263H12.7363C12.7578 30.9471 12.8728 31.379 13.0814 31.7547L15.0578 35.4065C15.1973 35.6391 15.453 35.8019 15.7553 35.7787C16.0576 35.8019 16.3133 35.6391 16.4296 35.3832L18.4292 31.7547C18.6378 31.379 18.7528 30.9471 18.7743 30.5263Z" fill="#66AAA3"/>
<ellipse id="Ellipse 1" cx="15.2573" cy="38.4211" rx="15.2573" ry="1.57895" fill="#FFAE5B"/>
</g>
</svg>
