<svg width="94" height="10" viewBox="0 0 94 10" fill="none" xmlns="http://www.w3.org/2000/svg">
<g id="Think Up Together">
<path d="M0.975258 6.36698V3.67372H0.774883C0.338168 3.67372 0.0915527 3.44243 0.0915527 3.04667C0.0915527 2.6509 0.338168 2.41961 0.774883 2.41961H1.01636V1.8234C1.01636 1.25802 1.30408 0.944489 1.81272 0.944489C2.3265 0.944489 2.60908 1.25802 2.60908 1.8234V2.41961H3.04066C3.47738 2.41961 3.72399 2.6509 3.72399 3.04667C3.72399 3.44243 3.47738 3.67372 3.04066 3.67372H2.62964V6.11513C2.62964 6.55715 2.75294 6.72163 3.10231 6.72163C3.24617 6.72163 3.33352 6.69593 3.47738 6.69593C3.73427 6.69593 3.91409 6.87582 3.91409 7.16365C3.91409 7.40008 3.8062 7.59539 3.60068 7.73417C3.37976 7.88836 3.05607 7.9706 2.63991 7.9706C1.49932 7.9706 0.975258 7.47718 0.975258 6.36698Z" fill="#515151"/>
<path d="M10.3641 6.9889C10.3641 7.5697 10.0713 7.8935 9.54206 7.8935C9.00772 7.8935 8.71487 7.5697 8.71487 6.9889V4.65029C8.71487 4.00781 8.39632 3.63775 7.84658 3.63775C7.266 3.63775 6.88067 4.09519 6.88067 4.80448V6.9889C6.88067 7.5697 6.58267 7.8935 6.05862 7.8935C5.52428 7.8935 5.23143 7.5697 5.23143 6.9889V1.31969C5.23143 0.733757 5.52942 0.409949 6.05862 0.409949C6.58781 0.409949 6.88067 0.733757 6.88067 1.31969V3.30366H6.96287C7.14783 2.69202 7.80034 2.27056 8.5556 2.27056C9.69619 2.27056 10.3641 2.99013 10.3641 4.21854V6.9889Z" fill="#515151"/>
<path d="M12.0308 0.949629C12.0308 0.481907 12.4059 0.14782 12.9197 0.14782C13.4386 0.14782 13.8085 0.481907 13.8085 0.949629C13.8085 1.42249 13.4386 1.75658 12.9197 1.75658C12.4059 1.75658 12.0308 1.42249 12.0308 0.949629ZM13.7468 6.9889C13.7468 7.57998 13.4437 7.8935 12.9197 7.8935C12.3956 7.8935 12.0976 7.57998 12.0976 6.9889V3.21114C12.0976 2.62006 12.4007 2.30654 12.9197 2.30654C13.4437 2.30654 13.7468 2.62006 13.7468 3.21114V6.9889Z" fill="#515151"/>
<path d="M20.6182 6.99404C20.6182 7.57998 20.3202 7.8935 19.791 7.8935C19.2566 7.8935 18.9638 7.5697 18.9638 6.9889V4.64515C18.9638 4.01295 18.6504 3.63775 18.1109 3.63775C17.5303 3.63775 17.1553 4.07977 17.1553 4.80448V6.9889C17.1553 7.5697 16.8624 7.8935 16.3332 7.8935C15.804 7.8935 15.506 7.5697 15.506 6.9889V3.1803C15.506 2.63548 15.8143 2.30654 16.3127 2.30654C16.8008 2.30654 17.0833 2.58409 17.109 3.10321V3.30366H17.1912C17.3916 2.6766 18.0236 2.27056 18.8045 2.27056C19.9605 2.27056 20.6182 2.97471 20.6182 4.2134V6.99404Z" fill="#515151"/>
<path d="M23.9701 6.9889C23.9701 7.56456 23.6875 7.8935 23.1634 7.8935C22.6291 7.8935 22.326 7.56456 22.326 6.9889V1.31969C22.326 0.733757 22.6137 0.409949 23.148 0.409949C23.6772 0.409949 23.9701 0.733757 23.9701 1.31969V4.36246H24.0626L25.7735 2.58923C25.9995 2.3528 26.1948 2.25514 26.4465 2.25514C26.8575 2.25514 27.1555 2.55325 27.1555 2.96443C27.1555 3.17516 27.0733 3.3602 26.8986 3.53495L25.6604 4.77878L27.0374 6.48006C27.2223 6.70107 27.3148 6.92208 27.3148 7.13795C27.3148 7.55428 26.986 7.88322 26.5647 7.88322C26.277 7.88322 26.0612 7.76501 25.8454 7.50288L24.3862 5.65769L23.9701 6.05859V6.9889Z" fill="#515151"/>
<path d="M34.6609 6.92208C34.481 7.46176 33.9005 7.90378 33.0373 7.90378C31.9429 7.90378 31.2442 7.28701 31.2442 6.0072V3.206C31.2442 2.60979 31.5525 2.30654 32.0765 2.30654C32.5955 2.30654 32.8986 2.60979 32.8986 3.206V5.59087C32.8986 6.26933 33.2531 6.56229 33.7463 6.56229C34.3372 6.56229 34.6968 6.16139 34.6968 5.55489V3.206C34.6968 2.60979 35 2.30654 35.5189 2.30654C36.0429 2.30654 36.3461 2.60979 36.3461 3.206V7.01974C36.3461 7.57484 36.0275 7.8935 35.5394 7.8935C35.0616 7.8935 34.7687 7.62109 34.7431 7.10197V6.92208H34.6609Z" fill="#515151"/>
<path d="M39.7082 8.85465C39.7082 9.44058 39.4154 9.75925 38.8862 9.75925C38.3519 9.75925 38.0641 9.44058 38.0641 8.85465V3.21114C38.0641 2.63034 38.3519 2.30654 38.8759 2.30654C39.364 2.30654 39.6569 2.57381 39.698 3.06723V3.22142H39.7802C40.0011 2.64062 40.5868 2.27056 41.3472 2.27056C42.6111 2.27056 43.3561 3.19058 43.3561 4.76336V5.39556C43.3561 6.97348 42.606 7.90378 41.3369 7.90378C40.592 7.90378 40.0268 7.5697 39.7905 6.98376H39.7082V8.85465ZM39.7082 5.39042C39.7082 6.14597 40.0987 6.62397 40.6947 6.62397C41.301 6.62397 41.6555 6.13569 41.6555 5.30304V4.8713C41.6555 4.02837 41.301 3.55037 40.6844 3.55037C40.0782 3.55037 39.7082 4.01809 39.7082 4.8199V5.39042Z" fill="#515151"/>
<path d="M47.8918 6.36698V3.67372H47.6914C47.2547 3.67372 47.0081 3.44243 47.0081 3.04667C47.0081 2.6509 47.2547 2.41961 47.6914 2.41961H47.9329V1.8234C47.9329 1.25802 48.2206 0.944489 48.7292 0.944489C49.243 0.944489 49.5256 1.25802 49.5256 1.8234V2.41961H49.9572C50.3939 2.41961 50.6405 2.6509 50.6405 3.04667C50.6405 3.44243 50.3939 3.67372 49.9572 3.67372H49.5461V6.11513C49.5461 6.55715 49.6695 6.72163 50.0188 6.72163C50.1627 6.72163 50.25 6.69593 50.3939 6.69593C50.6508 6.69593 50.8306 6.87582 50.8306 7.16365C50.8306 7.40008 50.7227 7.59539 50.5172 7.73417C50.2963 7.88836 49.9726 7.9706 49.5564 7.9706C48.4158 7.9706 47.8918 7.47718 47.8918 6.36698Z" fill="#515151"/>
<path d="M54.46 2.21916C56.0424 2.21916 57.0957 3.206 57.0957 4.80962V5.34416C57.0957 7.01974 56.0424 7.97574 54.46 7.97574C52.8724 7.97574 51.8191 7.01974 51.8191 5.3493V4.8199C51.8191 3.206 52.8724 2.21916 54.46 2.21916ZM54.46 3.45271C53.8742 3.45271 53.5197 3.95127 53.5197 4.80962V5.38014C53.5197 6.23849 53.8742 6.74219 54.46 6.74219C55.0508 6.74219 55.3899 6.23849 55.3899 5.38014V4.80962C55.3899 3.95127 55.0508 3.45271 54.46 3.45271Z" fill="#515151"/>
<path d="M61.9067 6.85526C61.7063 7.3641 61.136 7.71361 60.3808 7.71361C59.1528 7.71361 58.3565 6.79873 58.3565 5.20539V4.78392C58.3565 3.19058 59.1528 2.27056 60.3756 2.27056C61.1617 2.27056 61.732 2.66118 61.9221 3.19058H62.0043V3.05181C62.0403 2.54811 62.3434 2.28598 62.811 2.28598C63.335 2.28598 63.6382 2.60465 63.6382 3.19058V7.68277C63.6382 9.13734 62.5952 9.90317 60.9254 9.90317C60.1753 9.90317 59.5793 9.78495 59.1785 9.56394C58.8035 9.35835 58.5774 9.06024 58.5774 8.70559C58.5774 8.34067 58.8343 8.0991 59.2402 8.0991C59.4662 8.0991 59.6152 8.18647 59.7951 8.29441C60.0468 8.43318 60.3602 8.62335 60.9151 8.62335C61.6447 8.62335 61.9889 8.28927 61.9889 7.54914V6.85526H61.9067ZM60.0622 5.23109C60.0622 6.03289 60.4424 6.5366 61.0384 6.5366C61.6498 6.5366 61.9889 6.01234 61.9889 5.29276V4.79934C61.9889 4.06949 61.6447 3.55037 61.0281 3.55037C60.4322 3.55037 60.0622 4.04893 60.0622 4.85588V5.23109Z" fill="#515151"/>
<path d="M65.1507 5.40584V4.79934C65.1507 3.24712 66.1783 2.21916 67.7248 2.21916C69.1788 2.21916 70.2063 3.23684 70.2063 4.59889C70.2063 5.22595 69.9854 5.4521 69.3946 5.4521H66.8308V5.65255C66.8411 6.30016 67.2726 6.73705 68.0074 6.73705C68.403 6.73705 68.6701 6.64967 68.8808 6.49548C69.1325 6.33614 69.2404 6.23849 69.4973 6.23849C69.8313 6.23849 70.0522 6.45436 70.0522 6.80386C70.0522 7.09683 69.8724 7.35382 69.559 7.54914C69.1839 7.81641 68.5828 7.97574 67.8892 7.97574C66.1937 7.97574 65.1507 7.00946 65.1507 5.40584ZM66.8308 4.50637H68.6496V4.49095C68.6496 3.8639 68.3002 3.45271 67.7607 3.45271C67.1802 3.45271 66.8308 3.87418 66.8308 4.49095V4.50637Z" fill="#515151"/>
<path d="M72.1402 6.36698V3.67372H71.9398C71.5031 3.67372 71.2565 3.44243 71.2565 3.04667C71.2565 2.6509 71.5031 2.41961 71.9398 2.41961H72.1813V1.8234C72.1813 1.25802 72.469 0.944489 72.9777 0.944489C73.4915 0.944489 73.774 1.25802 73.774 1.8234V2.41961H74.2056C74.6423 2.41961 74.889 2.6509 74.889 3.04667C74.889 3.44243 74.6423 3.67372 74.2056 3.67372H73.7946V6.11513C73.7946 6.55715 73.9179 6.72163 74.2673 6.72163C74.4111 6.72163 74.4985 6.69593 74.6423 6.69593C74.8992 6.69593 75.079 6.87582 75.079 7.16365C75.079 7.40008 74.9712 7.59539 74.7656 7.73417C74.5447 7.88836 74.221 7.9706 73.8049 7.9706C72.6643 7.9706 72.1402 7.47718 72.1402 6.36698Z" fill="#515151"/>
<path d="M81.5291 6.9889C81.5291 7.5697 81.2362 7.8935 80.707 7.8935C80.1727 7.8935 79.8798 7.5697 79.8798 6.9889V4.65029C79.8798 4.00781 79.5613 3.63775 79.0115 3.63775C78.431 3.63775 78.0456 4.09519 78.0456 4.80448V6.9889C78.0456 7.5697 77.7476 7.8935 77.2236 7.8935C76.6892 7.8935 76.3964 7.5697 76.3964 6.9889V1.31969C76.3964 0.733757 76.6944 0.409949 77.2236 0.409949C77.7528 0.409949 78.0456 0.733757 78.0456 1.31969V3.30366H78.1278C78.3128 2.69202 78.9653 2.27056 79.7206 2.27056C80.8612 2.27056 81.5291 2.99013 81.5291 4.21854V6.9889Z" fill="#515151"/>
<path d="M82.9851 5.40584V4.79934C82.9851 3.24712 84.0127 2.21916 85.5592 2.21916C87.0132 2.21916 88.0407 3.23684 88.0407 4.59889C88.0407 5.22595 87.8198 5.4521 87.229 5.4521H84.6652V5.65255C84.6755 6.30016 85.107 6.73705 85.8418 6.73705C86.2374 6.73705 86.5045 6.64967 86.7152 6.49548C86.9669 6.33614 87.0748 6.23849 87.3317 6.23849C87.6657 6.23849 87.8866 6.45436 87.8866 6.80386C87.8866 7.09683 87.7068 7.35382 87.3934 7.54914C87.0183 7.81641 86.4172 7.97574 85.7236 7.97574C84.0281 7.97574 82.9851 7.00946 82.9851 5.40584ZM84.6652 4.50637H86.484V4.49095C86.484 3.8639 86.1346 3.45271 85.5951 3.45271C85.0146 3.45271 84.6652 3.87418 84.6652 4.49095V4.50637Z" fill="#515151"/>
<path d="M91.182 6.9889C91.182 7.56456 90.8737 7.8935 90.3394 7.8935C89.7999 7.8935 89.5328 7.56456 89.5328 6.9889V3.21114C89.5328 2.63034 89.8153 2.30654 90.3445 2.30654C90.8224 2.30654 91.0947 2.57381 91.1306 3.07237V3.14946H91.2077C91.3927 2.58409 91.7831 2.27056 92.3123 2.27056C92.5384 2.27056 92.7182 2.33224 92.8467 2.45559C92.9802 2.57895 93.0522 2.75884 93.0522 2.99013C93.0522 3.21628 92.9854 3.38076 92.8518 3.49383C92.7285 3.59663 92.5384 3.65317 92.2918 3.66344C91.5468 3.68914 91.182 4.09519 91.182 4.88158V6.9889Z" fill="#515151"/>
</g>
</svg>
