<svg width="68" height="17" viewBox="0 0 68 17" fill="none" xmlns="http://www.w3.org/2000/svg">
<g id="&#229;&#133;&#177;&#231;&#173;&#134;&#229;&#176;&#143;&#232;&#170;&#170;">
<path d="M1.42903 11.2316C0.991304 11.2316 0.73877 10.979 0.73877 10.5242C0.73877 10.0695 0.991304 9.83372 1.42903 9.83372H4.32475V5.96003H2.27081C1.84992 5.96003 1.59739 5.72424 1.59739 5.26951C1.59739 4.83161 1.84992 4.57898 2.27081 4.57898H4.32475V1.98529C4.32475 1.31161 4.74564 0.941085 5.50325 0.941085C6.26085 0.941085 6.68174 1.31161 6.68174 1.98529V4.57898H9.89734V1.98529C9.89734 1.31161 10.3182 0.941085 11.0758 0.941085C11.8166 0.941085 12.2543 1.31161 12.2543 1.98529V4.57898H14.3419C14.7797 4.57898 15.0154 4.83161 15.0154 5.26951C15.0154 5.72424 14.7797 5.96003 14.3419 5.96003H12.2543V9.83372H15.1837C15.6214 9.83372 15.874 10.0695 15.874 10.5242C15.874 10.979 15.6214 11.2316 15.1837 11.2316H1.42903ZM6.68174 5.96003V9.83372H9.89734V5.96003H6.68174ZM7.06896 11.9727C7.67504 12.5285 7.62453 13.219 6.95111 13.7748C5.35173 15.139 3.1631 16.2337 1.6984 16.6211C1.32802 16.7221 1.02497 16.6211 0.89029 16.3011C0.755605 15.9979 0.822948 15.7116 1.19333 15.4758C2.40549 14.7011 3.97121 13.5053 5.21704 12.0737C5.77262 11.4506 6.49655 11.4337 7.06896 11.9727ZM15.1164 14.1621C15.8235 14.6842 15.975 15.3916 15.4531 16.099C14.9144 16.7727 14.1567 16.8232 13.5002 16.2C12.3722 15.1221 10.857 13.8253 9.67848 12.899C9.30809 12.5958 9.24075 12.2927 9.44278 11.939C9.62797 11.5853 9.93101 11.5179 10.3687 11.6695C11.8839 12.1579 13.7359 13.1685 15.1164 14.1621Z" fill="#515151"/>
<path d="M18.9086 6.06108C18.5887 6.22951 18.3025 6.24635 18.1005 5.97687C17.8985 5.69056 17.9658 5.45477 18.1847 5.20214C19.2958 3.98951 20.0534 2.52424 20.4911 1.31161C20.7268 0.67161 21.3329 0.452663 22.0063 0.705295C22.6966 0.974768 22.8313 1.49687 22.5283 2.17056V2.1874H25.3735C25.7775 2.1874 26.0132 2.45687 26.0132 2.84424C26.0132 3.24845 25.7775 3.48424 25.3735 3.48424H23.5721C23.7741 3.73687 23.9593 4.00635 24.1276 4.29266C24.4307 4.88214 24.195 5.30319 23.5889 5.47161C23.0165 5.65687 22.6293 5.42108 22.5114 4.79793C22.3936 4.36003 22.2926 3.93898 22.1747 3.48424H21.737C20.9794 4.54529 19.9187 5.53898 18.9086 6.06108ZM32.5623 13.2021C32.9832 13.2021 33.2189 13.4211 33.2189 13.8421C33.2189 14.2463 32.9832 14.499 32.5623 14.499H26.8887V15.5263C26.8887 16.3011 26.4509 16.6548 25.6765 16.6548C24.8852 16.6548 24.4475 16.3011 24.4475 15.5263V14.499H18.7234C18.3025 14.499 18.0668 14.2463 18.0668 13.8421C18.0668 13.4211 18.3025 13.2021 18.7234 13.2021H24.4475V12.5958H20.2218C19.8177 12.5958 19.5989 12.36 19.5989 11.9558C19.5989 11.5516 19.8177 11.3495 20.2218 11.3495H24.4475V10.7432H20.6258C20.2386 10.7432 20.0029 10.4906 20.0029 10.12C20.0029 9.73266 20.2386 9.51372 20.6258 9.51372H24.4475V8.9074H18.9591C18.5382 8.9074 18.3025 8.65477 18.3025 8.23372C18.3025 7.82951 18.5382 7.61056 18.9591 7.61056H24.4475V7.02108H20.7773C20.3733 7.02108 20.1544 6.81898 20.1544 6.41477C20.1544 6.0274 20.3733 5.79161 20.7773 5.79161H24.4475V5.37056C24.4475 4.69687 24.8516 4.32635 25.4913 4.25898L25.5082 4.24214C26.0469 3.40003 26.5015 2.47372 26.7877 1.37898C26.9729 0.67161 27.5621 0.536873 28.2692 0.772664C28.9426 0.99161 28.9931 1.53056 28.7406 2.12003L28.6901 2.22108H32.5623C32.9663 2.22108 33.202 2.44003 33.202 2.86108C33.202 3.28214 32.9663 3.51793 32.5623 3.51793H30.4073C30.5925 3.72003 30.7609 3.93898 30.9124 4.17477C31.2828 4.7474 31.0807 5.21898 30.4747 5.43793C29.8686 5.67372 29.4309 5.42108 29.2793 4.78108C29.1783 4.34319 29.0605 3.92214 28.9258 3.51793H27.882C27.5453 3.95582 27.158 4.39372 26.754 4.76424C26.8382 4.93266 26.8887 5.11793 26.8887 5.35372V5.79161H30.3905C31.0639 5.79161 31.4343 6.16214 31.4343 6.81898V7.61056H32.5791C33 7.61056 33.2189 7.84635 33.2189 8.25056C33.2189 8.67161 33 8.9074 32.5791 8.9074H31.4343V9.73266C31.4343 10.4063 31.0639 10.7432 30.3905 10.7432H26.8887V11.3495H31.7037C32.1245 11.3495 32.3434 11.5516 32.3434 11.9558C32.3434 12.36 32.1245 12.5958 31.7037 12.5958H26.8887V13.2021H32.5623ZM26.8887 7.02108V7.61056H29.1278V7.32424C29.1278 7.17266 29.0436 7.02108 28.9258 7.02108H26.8887ZM26.8887 8.9074V9.51372H28.9258C29.0436 9.51372 29.1278 9.46319 29.1278 9.34529V8.9074H26.8887Z" fill="#515151"/>
<path d="M38.6441 15.8127C38.3243 15.6779 38.1896 15.4085 38.2906 15.0548C38.3748 14.7348 38.5936 14.6 39.0145 14.6506C41.6409 14.9369 41.9607 14.7348 41.9607 13.8927V2.00214C41.9607 1.19372 42.3816 0.823189 43.2066 0.823189C44.0315 0.823189 44.4861 1.19372 44.4861 2.00214V14.4148C44.4861 16.5706 42.3143 17.379 38.6441 15.8127ZM49.7725 13.0674C48.9307 13.3369 48.2909 13 48.1057 12.1916C47.4828 9.69898 46.7757 7.40845 46.0686 5.64003C45.9003 5.23582 46.0013 4.9495 46.338 4.7474C46.6747 4.56214 47.0283 4.62951 47.264 4.98319C48.392 6.56635 49.7556 8.95793 50.5806 11.3158C50.9005 12.1916 50.5974 12.7979 49.7725 13.0674ZM36.4555 13.1853C36.1525 13.4548 35.7989 13.5053 35.5464 13.2527C35.2602 12.9832 35.2602 12.6969 35.4622 12.36C36.5229 10.6758 37.3646 8.5874 37.8697 5.74108C38.0212 4.96635 38.56 4.64635 39.3344 4.79793C40.1425 4.96635 40.4119 5.55582 40.2435 6.26319C39.6038 9.04214 38.0212 11.7874 36.4555 13.1853Z" fill="#515151"/>
<path d="M58.4975 4.88214H53.4805C53.0428 4.88214 52.8239 4.64635 52.8239 4.22529C52.8239 3.7874 53.0428 3.55161 53.4805 3.55161H55.0126V1.81687C55.0126 1.19372 55.3829 0.823189 56.09 0.823189C56.7971 0.823189 57.1843 1.19372 57.1843 1.81687V3.55161H58.4975C58.9184 3.55161 59.1541 3.7874 59.1541 4.22529C59.1541 4.64635 58.9184 4.88214 58.4975 4.88214ZM67.7739 11.9727C68.279 15.0885 67.9423 16.0485 66.6965 16.1495C66.0904 16.2 65.518 16.2169 64.8614 16.1663C63.6155 16.0653 63.3125 15.6611 63.3125 14.2463V9.96845H62.7233C62.5717 13.3032 61.3259 15.56 58.5985 16.5706C58.245 16.6885 57.9925 16.6042 57.8578 16.3179C57.7062 16.0316 57.7904 15.779 58.1103 15.56C59.8612 14.3642 60.5851 12.9327 60.6862 9.96845H60.2484C59.575 9.96845 59.2215 9.59793 59.2215 8.92424V5.65687C59.2215 5.00003 59.575 4.62951 60.2484 4.62951H61.0734C60.9219 4.51161 60.7872 4.34319 60.703 4.09056C60.4505 3.38319 60.1137 2.52424 59.8444 1.88424C59.6929 1.53056 59.7602 1.24424 60.0296 1.05898C60.3158 0.890558 60.602 0.9074 60.8713 1.16003C61.3932 1.66529 62.0498 2.42319 62.4876 3.16424C62.8748 3.80424 62.7233 4.27582 62.134 4.59582C62.1172 4.61266 62.1003 4.61266 62.0667 4.62951H63.5819C63.8849 3.73687 64.1375 2.74319 64.3563 1.71582C64.5078 0.99161 64.9961 0.789506 65.6863 0.957927C66.3766 1.12635 66.5618 1.66529 66.3429 2.28845C66.0062 3.16424 65.5348 3.97266 65.0129 4.62951H65.9725C66.6291 4.62951 66.9995 5.00003 66.9995 5.65687V8.92424C66.9995 9.59793 66.6291 9.96845 65.9725 9.96845H65.3159V13.7748C65.3159 14.1453 65.3833 14.2463 65.6863 14.28C65.8884 14.2969 66.0904 14.2969 66.2924 14.28C66.6123 14.2463 66.6628 14.0442 66.7301 12.0063C66.7301 11.619 66.9658 11.4842 67.2352 11.4842C67.5214 11.4842 67.7234 11.6358 67.7739 11.9727ZM53.9856 7.17266C53.5647 7.17266 53.329 6.93687 53.329 6.51582C53.329 6.11161 53.5647 5.87582 53.9856 5.87582H58.0261C58.447 5.87582 58.6659 6.11161 58.6659 6.51582C58.6659 6.93687 58.447 7.17266 58.0261 7.17266H53.9856ZM61.3427 8.48635C61.3427 8.60424 61.4269 8.68845 61.5448 8.68845H64.6762C64.794 8.68845 64.8782 8.60424 64.8782 8.48635V6.11161C64.8782 5.99372 64.794 5.90951 64.6762 5.90951H61.5448C61.4269 5.90951 61.3427 5.99372 61.3427 6.11161V8.48635ZM54.0024 9.39582C53.5984 9.39582 53.3458 9.14319 53.3458 8.73898C53.3458 8.31793 53.5984 8.09898 54.0024 8.09898H57.9925C58.4133 8.09898 58.6659 8.31793 58.6659 8.73898C58.6659 9.14319 58.4133 9.39582 57.9925 9.39582H54.0024ZM58.7332 14.2127C58.7332 14.8695 58.3628 15.24 57.6894 15.24H55.3661V15.7621C55.3661 16.3179 55.0126 16.6211 54.3728 16.6211C53.7499 16.6211 53.3963 16.3179 53.3963 15.7621V11.4C53.3963 10.7432 53.7667 10.3727 54.4233 10.3727H57.6894C58.3628 10.3727 58.7332 10.7432 58.7332 11.4V14.2127ZM56.7635 13.7916V11.8211C56.7635 11.7032 56.6793 11.619 56.5614 11.619H55.5681C55.4503 11.619 55.3661 11.7032 55.3661 11.8211V13.9937H56.5614C56.6793 13.9937 56.7635 13.9095 56.7635 13.7916Z" fill="#515151"/>
</g>
</svg>
